<?xml version="1.0" encoding="UTF-8"?>
<svg width="86px" height="42px" viewBox="0 0 86 42" version="1.1" xmlns="http://www.w3.org/2000/svg" xmlns:xlink="http://www.w3.org/1999/xlink">
    <!-- Generator: Sketch 53.2 (72643) - https://sketchapp.com -->
    <title>logo-zalopay</title>
    <desc>Created with Sketch.</desc>
    <defs>
        <polygon id="path-1" points="0 0.0137981224 14.3332165 0.0137981224 14.3332165 17.6474492 0 17.6474492"></polygon>
    </defs>
    <g id="logo-zalopay" stroke="none" stroke-width="1" fill="none" fill-rule="evenodd">
        <g id="Group-2">
            <g id="Group">
                <g id="Group-39">
                    <path d="M22.0826905,16.9936322 C21.6346187,17.5689178 21.0172193,17.8562332 20.2323543,17.8562332 C19.446394,17.8562332 18.8300899,17.5689178 18.3823467,16.9936322 C17.935151,16.4176916 17.7110604,15.7060621 17.7110604,14.8581981 C17.7110604,14.0106615 17.935151,13.2990321 18.3823467,12.7235281 C18.8300899,12.1478058 19.446394,11.8604905 20.2323543,11.8604905 C21.0172193,11.8604905 21.6346187,12.1478058 22.0826905,12.7235281 C22.5304338,13.2990321 22.7544149,14.0106615 22.7544149,14.8581981 C22.7544149,15.7060621 22.5304338,16.4176916 22.0826905,16.9936322 M25.9121658,9.25598574 C25.5660629,8.9037188 25.1264246,8.72676661 24.5920461,8.72676661 C23.8063049,8.72676661 23.232716,9.10261262 22.8722652,9.8535405 C22.1017481,8.95153191 21.0489819,8.50112801 19.7141857,8.50112801 C18.1118169,8.50112801 16.763768,9.11778619 15.6720104,10.3496834 C14.580472,11.5819082 14.0348123,13.0849647 14.0348123,14.8581981 C14.0348123,16.6313223 14.580472,18.1343789 15.6720104,19.3667128 C16.763768,20.5993741 18.1118169,21.2152682 19.7141857,21.2152682 C21.0489819,21.2152682 22.1017481,20.7644276 22.8722652,19.8623099 C23.232716,20.6145477 23.8063049,20.9895204 24.5920461,20.9895204 C25.1264246,20.9895204 25.5660629,20.8134415 25.9121658,20.4599738 C26.257502,20.1072702 26.4298963,19.6749873 26.4298963,19.1638891 L26.4298963,10.5523979 C26.4298963,10.0416272 26.257502,9.60978095 25.9121658,9.25598574" id="Fill-1" fill="#008FE5"></path>
                    <path d="M30.591948,20.7186886 C30.2461737,21.0721563 29.8058782,21.2483444 29.272595,21.2483444 C28.7379975,21.2483444 28.2978115,21.0721563 27.9524753,20.7186886 C27.6062629,20.3660942 27.4338686,19.9338112 27.4338686,19.422713 L27.4338686,3.56753511 C27.4338686,3.05687359 27.6062629,2.62426315 27.9524753,2.27112292 C28.2978115,1.91798268 28.7379975,1.74190379 29.272595,1.74190379 C29.8058782,1.74190379 30.2461737,1.91798268 30.591948,2.27112292 C30.9376128,2.62426315 31.1101167,3.05687359 31.1101167,3.56753511 L31.1101167,19.422713 C31.1101167,19.9338112 30.9376128,20.3660942 30.591948,20.7186886" id="Fill-3" fill="#008FE5"></path>
                    <path d="M40.1197667,16.9936322 C39.6715853,17.5689178 39.0550621,17.8562332 38.2693209,17.8562332 C37.4833607,17.8562332 36.8670565,17.5689178 36.4198609,16.9936322 C35.9716796,16.4176916 35.7476984,15.7060621 35.7476984,14.8581981 C35.7476984,14.0106615 35.9716796,13.2990321 36.4198609,12.7235281 C36.8670565,12.1478058 37.4833607,11.8604905 38.2693209,11.8604905 C39.0550621,11.8604905 39.6715853,12.1478058 40.1197667,12.7235281 C40.5674004,13.2990321 40.7907244,14.0106615 40.7907244,14.8581981 C40.7907244,15.7060621 40.5674004,16.4176916 40.1197667,16.9936322 M42.7708492,10.3496834 C41.592566,9.11778619 40.0921661,8.50112801 38.2693209,8.50112801 C36.4469139,8.50112801 34.9588905,9.1099265 33.8042649,10.3273051 C32.6488726,11.5443563 32.0717789,13.0545084 32.0717789,14.8581981 C32.0717789,16.6614511 32.6488726,18.1719307 33.8042649,19.389091 C34.9588905,20.6063605 36.4469139,21.2152682 38.2693209,21.2152682 C40.0921661,21.2152682 41.592566,20.5993741 42.7708492,19.3667128 C43.9018171,18.1641802 44.4677392,16.6614511 44.4677392,14.8581981 C44.4677392,13.0545084 43.9018171,11.5525435 42.7708492,10.3496834" id="Fill-5" fill="#008FE5"></path>
                    <g id="Group-9" transform="translate(0.000000, 3.530311)">
                        <mask id="mask-2" fill="white">
                            <use xlink:href="#path-1"></use>
                        </mask>
                        <g id="Clip-8"></g>
                        <path d="M11.9998696,5.39724911 C13.2983031,3.72728331 13.9483413,2.6020377 13.9483413,2.02293137 C13.9483413,0.683618368 13.1021416,0.0137981224 11.4102899,0.0137981224 L2.48685889,0.0137981224 C1.78567193,0.0137981224 1.24340754,0.179069937 0.858422822,0.509067753 C0.474095262,0.839611382 0.281876719,1.2685103 0.281876719,1.7966378 C0.281876719,2.32531111 0.474095262,2.75464668 0.858422822,3.08486282 C1.24340754,3.41529729 1.78567193,3.58013245 2.48685889,3.58013245 L8.61550891,3.58013245 L0.769049414,13.6847464 C0.25624758,14.3457245 -4.38104941e-05,14.931708 -4.38104941e-05,15.4435703 C-4.38104941e-05,16.9126774 0.974411105,17.6474492 2.92277331,17.6474492 L12.1277962,17.6474492 C13.598405,17.6474492 14.3332165,17.0324285 14.3332165,15.8020595 C14.3332165,14.5724547 13.598405,13.9571065 12.1277962,13.9571065 L5.35885583,13.9571065 L11.9998696,5.39724911 Z" id="Fill-7" fill="#008FE5" mask="url(#mask-2)"></path>
                    </g>
                    <path d="M54.0376159,7.16390001 L51.6178528,7.16390001 L51.6178528,12.1764173 L54.0376159,12.1764173 C54.7647606,12.1764173 55.3542308,11.9399716 55.8048217,11.4671894 C56.2555222,10.9942981 56.4809272,10.3954334 56.4809272,9.67015865 C56.4809272,8.94542974 56.2555222,8.34612837 55.8048217,7.87323703 C55.3542308,7.40045484 54.7647606,7.16390001 54.0376159,7.16390001" id="Fill-10" fill="#04BE04"></path>
                    <path d="M66.1100028,12.0721563 C65.3418953,12.0721563 64.7397201,12.3528128 64.3022723,12.9154356 C63.8651531,13.4777309 63.6463197,14.1730951 63.6463197,15.0013099 C63.6463197,15.8299614 63.8651531,16.5252165 64.3022723,17.0879485 C64.7397201,17.6501346 65.3418953,17.9310094 66.1100028,17.9310094 C66.877015,17.9310094 67.4802855,17.6501346 67.9180619,17.0879485 C68.3555097,16.5252165 68.5744526,15.8299614 68.5744526,15.0013099 C68.5744526,14.1730951 68.3555097,13.4777309 67.9180619,12.9154356 C67.4802855,12.3528128 66.877015,12.0721563 66.1100028,12.0721563" id="Fill-12" fill="#04BE04"></path>
                    <path d="M72.166026,19.2087548 C72.166026,19.7081726 71.9974651,20.1305218 71.6601243,20.4752565 C71.3217978,20.8206462 70.8922359,20.9926861 70.3701243,20.9926861 C69.6023454,20.9926861 69.0418996,20.6261189 68.6895537,19.8911287 C67.9366704,20.7726148 66.908,21.2130849 65.6036521,21.2130849 C64.037865,21.2130849 62.7207025,20.6114912 61.6538074,19.4068845 C60.587241,18.2027145 60.0539577,16.5399534 60.0539577,14.8073284 C60.0539577,13.0747034 60.587241,11.6059239 61.6538074,10.4017539 C62.7207025,9.19791136 64.037865,8.59544429 65.6036521,8.59544429 C66.908,8.59544429 67.9366704,9.03569609 68.6895537,9.91707299 C69.0418996,9.18317444 69.6023454,8.8158431 70.3701243,8.8158431 C70.8922359,8.8158431 71.3217978,8.98886544 71.6601243,9.33305436 C71.9974651,9.67877156 72.166026,10.1007932 72.166026,10.5998836 L72.166026,19.2087548 Z M58.4261788,13.7842588 C57.3190876,14.7931373 55.9271187,15.2974674 54.2511482,15.2974674 L51.6179185,15.2974674 L51.6179185,19.3690052 C51.6179185,19.9523688 51.4517672,20.4056109 51.1196836,20.7285132 C50.7876001,21.051743 50.3605573,21.2130849 49.8386648,21.2130849 C49.3167723,21.2130849 48.889839,21.051743 48.557646,20.7285132 C48.2254529,20.4056109 48.0594111,19.9523688 48.0594111,19.3690052 L48.0594111,5.88723528 C48.0594111,4.65784877 48.6762629,4.0429372 49.9098569,4.0429372 L54.1087641,4.0429372 C55.8641411,4.0429372 57.3148161,4.56735318 58.4617748,5.61531184 C59.6082955,6.66381632 60.1816653,8.02332436 60.1816653,9.69394513 C60.1816653,11.3806128 59.5962476,12.7439415 58.4261788,13.7842588 L58.4261788,13.7842588 Z M83.2936724,-5.68434189e-14 L48.3790087,-5.68434189e-14 C47.2086113,-5.68434189e-14 46.2597855,0.945673532 46.2597855,2.11240084 L46.2597855,22.5993377 C46.2597855,23.7658467 47.2086113,24.7116294 48.3790087,24.7116294 L75.8163164,24.7116294 C75.5242099,24.4355578 75.3774447,24.1125464 75.3774447,23.7423768 C75.3774447,23.4402154 75.44557,23.1233171 75.5818207,22.7913543 L76.8880306,19.8963685 L73.2762934,10.9081581 C73.1703816,10.6516265 73.1174804,10.3726075 73.1174804,10.0705553 C73.1174804,9.67811659 73.2838507,9.34593552 73.6171391,9.07423041 C73.9499893,8.80274361 74.2986113,8.66683647 74.6620194,8.66683647 C75.4645181,8.66683647 76.0097397,9.0516338 76.2975746,9.82144677 L78.5463673,15.9569173 L80.9541921,9.82144677 C81.2570321,9.0516338 81.8928319,8.66683647 82.680435,8.66683647 C83.0438431,8.66683647 83.392027,8.80274361 83.7254249,9.07423041 C84.0582751,9.34593552 84.2251931,9.67811659 84.2251931,10.0705553 C84.2251931,10.3726075 84.1719633,10.6516265 84.0660515,10.9081581 L78.6258833,23.8555782 C78.4793372,24.2173423 78.303,24.5019285 78.0976383,24.7116294 L83.2936724,24.7116294 C84.4640698,24.7116294 85.412786,23.7658467 85.412786,22.5993377 L85.412786,2.11240084 C85.412786,0.945673532 84.4640698,-5.68434189e-14 83.2936724,-5.68434189e-14 L83.2936724,-5.68434189e-14 Z" id="Fill-14" fill="#04BE04"></path>
                </g>
            </g>
            <path d="M0.585942233,32.9886998 L3.08489731,32.9886998 C5.06650864,32.9886998 6.2212938,34.194894 6.2212938,36.2804129 C6.2212938,38.4119699 5.08036606,39.6319754 3.08489731,39.6319754 L0.585942233,39.6319754 L0.585942233,32.9886998 Z M1.77768051,34.015346 L1.77768051,38.6053292 L2.92784653,38.6053292 C4.25353989,38.6053292 5.00645981,37.78125 5.00645981,36.2988281 C5.00645981,34.8486328 4.23506333,34.015346 2.92784653,34.015346 L1.77768051,34.015346 Z M11.5406457,32.8229632 C13.4760657,32.8229632 14.6862805,34.1626674 14.6862805,36.3080357 C14.6862805,38.4488002 13.4853039,39.7977121 11.5406457,39.7977121 C9.58213012,39.7977121 8.38115355,38.453404 8.38115355,36.3080357 C8.38115355,34.1626674 9.60522582,32.8229632 11.5406457,32.8229632 Z M11.5406457,33.8772321 C10.3535266,33.8772321 9.60060668,34.82101 9.60060668,36.3080357 C9.60060668,37.7904576 10.33505,38.7434431 11.5406457,38.7434431 C12.7277649,38.7434431 13.4668274,37.7904576 13.4668274,36.3080357 C13.4668274,34.82101 12.7231457,33.8772321 11.5406457,33.8772321 Z M21.1234645,39.6319754 L20.5599293,37.9331752 L18.1071657,37.9331752 L17.5343922,39.6319754 L16.3287965,39.6319754 L18.6937965,32.9886998 L20.0333473,32.9886998 L22.4029664,39.6319754 L21.1234645,39.6319754 Z M19.2989039,34.2547433 L18.3843141,36.9940011 L20.2827809,36.9940011 L19.3774293,34.2547433 L19.2989039,34.2547433 Z M25.7822793,39.6319754 L24.6321133,39.6319754 L24.6321133,32.9886998 L25.6668008,32.9886998 L28.9371524,37.5050223 L29.0156778,37.5050223 L29.0156778,32.9886998 L30.1612246,32.9886998 L30.1612246,39.6319754 L29.1311563,39.6319754 L25.8608047,35.1110491 L25.7822793,35.1110491 L25.7822793,39.6319754 Z M38.515352,39.6319754 L37.3282328,39.6319754 L37.3282328,36.7638114 L34.0855961,36.7638114 L34.0855961,39.6319754 L32.8938578,39.6319754 L32.8938578,32.9886998 L34.0855961,32.9886998 L34.0855961,35.7371652 L37.3282328,35.7371652 L37.3282328,32.9886998 L38.515352,32.9886998 L38.515352,39.6319754 Z M45.9991828,39.6319754 L44.8490168,39.6319754 L44.8490168,32.9886998 L45.8837043,32.9886998 L49.1540559,37.5050223 L49.2325812,37.5050223 L49.2325812,32.9886998 L50.3781281,32.9886998 L50.3781281,39.6319754 L49.3480598,39.6319754 L46.0777082,35.1110491 L45.9991828,35.1110491 L45.9991828,39.6319754 Z M58.8754488,36.9709821 C58.8754488,38.6974051 57.7391402,39.7977121 55.9607711,39.7977121 C54.0299703,39.7977121 52.8289937,38.4626116 52.8289937,36.3080357 C52.8289937,34.1810826 54.0438277,32.8229632 55.9422945,32.8229632 C57.4804683,32.8229632 58.6075387,33.6976842 58.8200191,35.0558036 L57.6329,35.0558036 C57.3927047,34.3007812 56.7968355,33.8818359 55.9422945,33.8818359 C54.7782711,33.8818359 54.0484469,34.8071987 54.0484469,36.2988281 C54.0484469,37.8088728 54.7921285,38.7388393 55.9792476,38.7388393 C56.9954586,38.7388393 57.6883297,38.1219308 57.7068062,37.2057757 L57.7114254,37.0676618 L56.1085836,37.0676618 L56.1085836,36.1376953 L58.8754488,36.1376953 L58.8754488,36.9709821 Z M66.961666,39.6319754 L65.7745469,39.6319754 L65.7745469,36.7638114 L62.5319101,36.7638114 L62.5319101,39.6319754 L61.3401719,39.6319754 L61.3401719,32.9886998 L62.5319101,32.9886998 L62.5319101,35.7371652 L65.7745469,35.7371652 L65.7745469,32.9886998 L66.961666,32.9886998 L66.961666,39.6319754 Z M70.8814183,39.6319754 L69.68968,39.6319754 L69.68968,32.9886998 L70.8814183,32.9886998 L70.8814183,39.6319754 Z M77.9237097,38.6053292 L77.9237097,39.6319754 L73.6094324,39.6319754 L73.6094324,32.9886998 L77.9237097,32.9886998 L77.9237097,34.015346 L74.8011707,34.015346 L74.8011707,35.7785993 L77.7528015,35.7785993 L77.7528015,36.7453962 L74.8011707,36.7453962 L74.8011707,38.6053292 L77.9237097,38.6053292 Z M75.2307507,30.8571429 L76.3023914,30.8571429 L77.6419422,32.3349609 L76.5241101,32.3349609 L75.8081433,31.4924665 L75.7249988,31.4924665 L75.009032,32.3349609 L73.8912,32.3349609 L75.2307507,30.8571429 Z M75.7665711,41.5747768 C75.3785632,41.5747768 75.1014148,41.2847377 75.1014148,40.9118304 C75.1014148,40.5343192 75.3785632,40.2442801 75.7665711,40.2442801 C76.1499597,40.2442801 76.4317273,40.5343192 76.4317273,40.9118304 C76.4317273,41.2847377 76.1499597,41.5747768 75.7665711,41.5747768 Z M80.4854347,32.9886998 L83.1737746,32.9886998 C84.5040871,32.9886998 85.4140578,33.8956473 85.4140578,35.2353516 C85.4140578,36.5520368 84.4717531,37.4543806 83.122964,37.4543806 L81.677173,37.4543806 L81.677173,39.6319754 L80.4854347,39.6319754 L80.4854347,32.9886998 Z M81.677173,33.9831194 L81.677173,36.4691685 L82.8550539,36.4691685 C83.7049757,36.4691685 84.2038429,36.0272042 84.2038429,35.2353516 C84.2038429,34.4204799 83.7188332,33.9831194 82.859673,33.9831194 L81.677173,33.9831194 Z" id="DOANHNGHIỆP" fill="#293C56" fill-rule="nonzero"></path>
        </g>
    </g>
</svg>